<svg id="svg" xmlns="http://www.w3.org/2000/svg" xmlns:xlink="http://www.w3.org/1999/xlink" width="400" height="300" viewBox="0, 0, 400,300"><g id="svgg"><path id="path0" d="M0.000 150.038 L 0.000 300.075 200.000 300.075 L 400.000 300.075 400.000 150.038 L 400.000 0.000 200.000 0.000 L 0.000 0.000 0.000 150.038 M231.596 106.418 C 232.703 106.688,233.737 107.026,233.893 107.168 C 234.050 107.310,234.362 107.427,234.586 107.427 C 235.163 107.427,240.060 109.864,240.060 110.150 C 240.060 110.281,240.303 110.464,240.600 110.559 C 243.023 111.328,248.425 118.642,249.922 123.181 L 250.317 124.381 254.266 125.662 C 270.646 130.976,270.363 130.833,264.461 130.833 C 260.914 130.833,260.498 130.892,259.260 131.580 C 257.378 132.625,254.177 134.134,253.843 134.134 C 253.689 134.134,253.563 134.239,253.563 134.368 C 253.563 134.496,252.893 134.862,252.073 135.180 C 250.835 135.660,250.553 135.912,250.405 136.671 C 250.308 137.173,250.100 137.888,249.945 138.260 C 249.790 138.631,249.540 139.239,249.391 139.610 C 248.044 142.958,246.811 144.903,244.213 147.780 C 243.498 148.572,243.049 149.413,242.926 150.192 C 242.489 152.972,242.108 155.055,241.857 156.039 C 241.193 158.643,240.545 160.713,240.313 160.975 C 240.174 161.132,240.060 161.449,240.060 161.680 C 240.060 162.332,238.116 166.552,236.507 169.392 C 234.074 173.688,228.393 180.303,224.906 182.902 C 224.246 183.393,223.539 183.953,223.336 184.145 C 221.746 185.643,214.591 189.664,211.703 190.682 C 210.878 190.973,209.932 191.321,209.602 191.456 C 208.222 192.018,206.000 192.648,205.398 192.648 C 205.042 192.648,204.652 192.747,204.531 192.868 C 203.899 193.500,198.198 194.111,192.756 194.129 C 186.249 194.151,184.184 193.881,178.095 192.210 C 176.241 191.701,175.896 191.578,173.958 190.739 C 173.334 190.469,172.625 190.248,172.383 190.248 C 172.141 190.248,171.943 190.113,171.943 189.947 C 171.943 189.782,171.761 189.647,171.538 189.647 C 170.893 189.647,165.220 186.558,163.691 185.373 C 163.526 185.245,162.648 184.569,161.740 183.871 C 160.165 182.659,158.790 181.480,156.839 179.670 C 155.799 178.705,155.722 178.694,154.284 179.325 C 153.681 179.590,152.918 179.918,152.588 180.055 C 152.258 180.192,151.448 180.530,150.788 180.806 C 150.128 181.081,149.317 181.419,148.987 181.557 C 148.657 181.695,147.466 182.221,146.341 182.727 C 145.215 183.232,144.194 183.646,144.071 183.646 C 143.949 183.646,143.148 183.983,142.293 184.396 C 141.438 184.809,140.543 185.146,140.304 185.146 C 140.066 185.146,139.796 185.266,139.705 185.413 C 139.615 185.560,139.198 185.766,138.780 185.871 C 138.361 185.976,137.313 186.375,136.451 186.758 C 135.589 187.140,134.411 187.631,133.833 187.848 C 133.256 188.065,132.655 188.357,132.498 188.495 C 132.130 188.820,131.133 188.823,131.133 188.498 C 131.133 188.256,159.842 159.771,160.491 159.370 C 160.671 159.259,164.779 155.257,169.620 150.477 C 192.169 128.212,208.325 112.406,209.364 111.593 C 209.990 111.103,210.746 110.501,211.044 110.254 C 212.565 108.994,217.794 106.760,220.705 106.127 C 222.392 105.760,229.701 105.955,231.596 106.418 " stroke="none" fill="#fbfbfb" fill-rule="evenodd"></path><path id="path1" d="M221.905 106.404 C 219.700 106.720,214.946 108.387,213.284 109.427 C 212.669 109.812,212.080 110.128,211.977 110.128 C 211.583 110.128,209.680 111.895,202.986 118.479 C 184.079 137.073,166.834 153.995,165.491 155.273 C 155.920 164.375,132.301 187.615,132.460 187.774 C 132.559 187.872,147.417 181.797,151.538 179.973 C 153.858 178.946,154.664 178.619,155.439 178.390 C 155.851 178.268,157.318 177.703,158.697 177.135 L 161.206 176.103 163.499 176.556 C 183.409 180.487,202.460 171.049,210.784 153.130 L 211.647 151.272 213.175 152.111 C 227.402 159.916,245.168 152.765,249.637 137.434 C 249.854 136.692,250.140 135.814,250.274 135.484 C 252.409 130.210,248.615 118.059,243.405 113.481 C 242.968 113.098,242.206 112.419,241.710 111.974 C 241.215 111.529,239.932 110.616,238.860 109.945 C 237.140 108.871,235.806 108.299,231.658 106.859 C 230.600 106.492,223.577 106.164,221.905 106.404 " stroke="none" fill="#2e2e29" fill-rule="evenodd"></path><path id="path2" d="M250.763 131.852 C 250.653 132.658,250.563 133.759,250.563 134.298 L 250.563 135.279 252.829 134.106 C 254.076 133.461,255.291 132.933,255.530 132.933 C 255.769 132.933,255.964 132.814,255.964 132.668 C 255.964 132.522,256.200 132.314,256.489 132.205 C 259.329 131.135,259.370 131.168,255.164 131.150 C 252.295 131.137,251.179 131.031,251.089 130.760 C 251.020 130.555,250.874 131.046,250.763 131.852 M240.510 150.546 C 232.710 156.252,221.593 156.868,213.067 152.065 L 211.730 151.312 210.345 154.074 C 201.456 171.798,182.312 180.803,162.764 176.455 C 161.163 176.099,161.015 176.134,157.164 177.773 L 156.039 178.253 158.651 180.650 C 165.181 186.645,173.313 190.868,181.695 192.618 C 182.521 192.790,183.853 193.076,184.657 193.253 C 193.094 195.112,207.921 192.728,216.045 188.205 C 216.793 187.789,217.876 187.184,218.453 186.861 C 229.421 180.723,238.589 168.330,241.364 155.889 C 242.942 148.813,242.936 148.772,240.510 150.546 " stroke="none" fill="#eb442c" fill-rule="evenodd"></path><path id="path3" d="M250.366 125.480 C 250.465 126.031,250.634 127.379,250.743 128.476 C 250.851 129.573,251.027 130.613,251.134 130.786 C 251.373 131.172,259.042 131.311,259.617 130.940 C 259.836 130.798,261.703 130.615,263.766 130.533 L 267.517 130.383 259.415 127.730 C 254.959 126.271,251.059 124.943,250.749 124.778 C 250.238 124.506,250.202 124.570,250.366 125.480 M256.946 131.979 C 256.413 132.256,255.975 132.587,255.971 132.714 C 255.967 132.841,256.504 132.670,257.164 132.333 C 257.824 131.996,258.365 131.656,258.365 131.577 C 258.365 131.336,257.962 131.451,256.946 131.979 M253.775 133.590 C 253.149 133.929,252.693 134.264,252.764 134.334 C 252.899 134.470,255.364 133.256,255.364 133.053 C 255.364 132.823,254.905 132.978,253.775 133.590 M251.295 134.869 C 250.733 135.289,250.737 135.298,251.393 135.133 C 251.766 135.038,252.146 134.843,252.235 134.697 C 252.489 134.287,251.940 134.387,251.295 134.869 M157.389 179.745 C 158.034 180.405,158.629 180.945,158.711 180.945 C 158.794 180.945,158.334 180.405,157.689 179.745 C 157.045 179.085,156.450 178.545,156.367 178.545 C 156.285 178.545,156.745 179.085,157.389 179.745 " stroke="none" fill="#f2a847" fill-rule="evenodd"></path><path id="path4" d="M224.531 106.145 C 225.150 106.210,226.163 106.210,226.782 106.145 C 227.401 106.080,226.894 106.027,225.656 106.027 C 224.419 106.027,223.912 106.080,224.531 106.145 M216.804 107.587 C 216.054 107.949,216.029 107.991,216.654 107.838 C 217.504 107.630,218.460 107.143,218.005 107.149 C 217.839 107.152,217.299 107.349,216.804 107.587 M198.930 122.131 C 194.050 126.999,191.417 129.690,193.078 128.110 C 198.968 122.510,208.091 113.468,207.948 113.374 C 207.867 113.321,203.809 117.262,198.930 122.131 M171.032 149.527 C 164.672 155.832,160.606 159.910,161.996 158.590 C 163.386 157.269,165.022 155.716,165.632 155.139 C 169.254 151.707,182.999 138.037,182.816 138.049 C 182.695 138.057,177.392 143.222,171.032 149.527 M244.097 147.112 L 242.911 148.387 244.186 147.201 C 245.372 146.098,245.599 145.836,245.372 145.836 C 245.323 145.836,244.749 146.410,244.097 147.112 M151.674 168.427 C 148.216 171.928,147.142 173.081,149.287 170.990 C 151.433 168.899,154.321 166.093,155.705 164.756 C 157.090 163.418,158.164 162.265,158.092 162.193 C 158.020 162.121,155.132 164.927,151.674 168.427 M135.480 184.276 C 132.648 187.131,131.527 188.437,132.033 188.291 C 133.093 187.985,133.912 187.459,132.933 187.713 C 132.404 187.850,133.332 186.748,136.080 183.976 C 138.223 181.814,139.909 180.045,139.827 180.045 C 139.744 180.045,137.788 181.949,135.480 184.276 " stroke="none" fill="#7c7c7c" fill-rule="evenodd"></path><path id="path5" d="M243.211 113.128 C 243.855 113.788,244.450 114.329,244.533 114.329 C 244.615 114.329,244.156 113.788,243.511 113.128 C 242.866 112.468,242.271 111.928,242.189 111.928 C 242.106 111.928,242.566 112.468,243.211 113.128 M204.045 116.954 L 201.200 119.880 204.126 117.035 C 206.843 114.393,207.188 114.029,206.971 114.029 C 206.926 114.029,205.610 115.345,204.045 116.954 M188.142 132.558 L 184.696 136.084 188.222 132.638 C 191.497 129.437,191.884 129.032,191.668 129.032 C 191.624 129.032,190.037 130.619,188.142 132.558 M174.038 146.362 L 171.193 149.287 174.119 146.443 C 176.836 143.800,177.181 143.436,176.963 143.436 C 176.919 143.436,175.602 144.752,174.038 146.362 M243.492 148.012 L 242.611 148.987 243.586 148.106 C 244.122 147.621,244.561 147.182,244.561 147.131 C 244.561 146.899,244.314 147.103,243.492 148.012 M159.479 160.615 L 157.989 162.191 159.565 160.701 C 161.029 159.318,161.278 159.040,161.054 159.040 C 161.007 159.040,160.298 159.749,159.479 160.615 M147.633 172.168 L 142.686 177.194 147.712 172.246 C 152.382 167.650,152.874 167.142,152.660 167.142 C 152.617 167.142,150.355 169.404,147.633 172.168 " stroke="none" fill="#989898" fill-rule="evenodd"></path><path id="path6" d="M242.576 149.270 C 242.485 149.508,242.463 149.947,242.527 150.245 C 242.601 150.584,242.703 150.421,242.801 149.812 C 242.964 148.791,242.858 148.534,242.576 149.270 M242.034 152.963 C 241.572 155.645,241.547 155.913,241.817 155.289 C 242.125 154.580,242.558 151.838,242.362 151.838 C 242.288 151.838,242.140 152.344,242.034 152.963 M241.132 157.111 C 241.021 157.550,240.999 157.978,241.081 158.060 C 241.164 158.143,241.321 157.851,241.432 157.411 C 241.542 156.971,241.565 156.544,241.482 156.461 C 241.400 156.379,241.242 156.671,241.132 157.111 M238.908 163.704 C 238.406 164.807,238.502 165.043,239.045 164.039 C 239.299 163.571,239.451 163.132,239.382 163.063 C 239.313 162.994,239.100 163.283,238.908 163.704 M237.454 166.767 C 237.351 167.056,237.210 167.427,237.141 167.592 C 237.071 167.757,237.227 167.630,237.487 167.309 C 237.959 166.728,238.101 166.242,237.800 166.242 C 237.712 166.242,237.556 166.478,237.454 166.767 M236.275 169.017 C 236.000 169.554,235.379 170.600,234.895 171.343 C 234.145 172.494,234.128 172.562,234.774 171.805 C 235.589 170.850,237.202 168.042,236.936 168.042 C 236.847 168.042,236.550 168.481,236.275 169.017 M231.208 176.187 C 230.713 176.863,228.957 178.708,227.307 180.288 C 225.656 181.867,224.846 182.739,225.506 182.225 C 227.388 180.759,232.897 174.938,232.389 174.951 C 232.235 174.955,231.703 175.511,231.208 176.187 M156.939 179.595 C 157.499 180.173,158.025 180.645,158.107 180.645 C 158.190 180.645,157.799 180.173,157.239 179.595 C 156.679 179.017,156.154 178.545,156.071 178.545 C 155.989 178.545,156.379 179.017,156.939 179.595 M159.714 182.058 C 161.672 183.764,162.106 183.966,160.406 182.380 C 159.572 181.601,158.788 180.960,158.664 180.955 C 158.540 180.950,159.012 181.446,159.714 182.058 M222.782 184.041 C 222.109 184.571,221.231 185.245,220.832 185.539 C 220.123 186.060,220.128 186.060,221.039 185.569 C 221.940 185.083,224.461 183.064,224.156 183.072 C 224.074 183.075,223.455 183.510,222.782 184.041 M162.341 184.055 C 162.341 184.138,162.746 184.494,163.241 184.846 C 163.736 185.199,164.141 185.420,164.141 185.337 C 164.141 185.255,163.736 184.899,163.241 184.546 C 162.746 184.194,162.341 183.973,162.341 184.055 M165.491 186.277 C 165.817 186.631,169.063 188.502,169.917 188.828 C 170.955 189.224,170.413 188.795,168.867 187.996 C 168.001 187.548,166.819 186.905,166.242 186.566 C 165.664 186.228,165.326 186.097,165.491 186.277 M218.830 186.681 C 217.807 187.336,217.476 187.776,218.380 187.279 C 219.068 186.901,220.147 186.067,219.955 186.061 C 219.872 186.059,219.366 186.338,218.830 186.681 M170.908 189.302 C 171.266 189.623,173.743 190.590,173.743 190.409 C 173.743 190.270,171.096 189.047,170.795 189.047 C 170.700 189.047,170.751 189.162,170.908 189.302 M176.594 191.597 C 177.607 192.074,178.753 192.229,177.944 191.779 C 177.697 191.642,177.089 191.449,176.594 191.351 L 175.694 191.172 176.594 191.597 M207.502 191.748 C 207.124 191.910,207.068 192.006,207.352 192.006 C 207.599 192.006,208.072 191.890,208.402 191.748 C 208.780 191.585,208.836 191.490,208.552 191.490 C 208.305 191.490,207.832 191.606,207.502 191.748 M179.145 192.334 C 179.392 192.502,179.854 192.641,180.170 192.644 C 180.938 192.650,180.698 192.478,179.595 192.231 C 178.937 192.084,178.816 192.112,179.145 192.334 M205.251 192.348 C 204.648 192.541,204.619 192.590,205.101 192.597 C 205.431 192.602,205.971 192.490,206.302 192.348 C 207.066 192.020,206.277 192.020,205.251 192.348 M182.896 193.248 C 184.165 193.571,185.255 193.571,184.246 193.248 C 183.833 193.116,183.158 193.011,182.746 193.014 C 182.072 193.019,182.087 193.043,182.896 193.248 M201.050 193.248 C 200.042 193.571,201.131 193.571,202.401 193.248 C 203.209 193.043,203.224 193.019,202.551 193.014 C 202.138 193.011,201.463 193.116,201.050 193.248 M187.127 193.906 C 188.568 194.162,197.271 194.148,198.480 193.888 C 198.965 193.784,196.345 193.698,192.659 193.698 C 188.972 193.698,186.483 193.792,187.127 193.906 " stroke="none" fill="#eca199" fill-rule="evenodd"></path><path id="path7" d="M220.405 106.227 C 219.596 106.432,219.581 106.456,220.255 106.461 C 220.668 106.464,221.343 106.359,221.755 106.227 C 222.764 105.904,221.674 105.904,220.405 106.227 M229.557 106.227 C 229.970 106.359,230.578 106.467,230.908 106.467 C 231.383 106.467,231.352 106.417,230.758 106.227 C 230.345 106.094,229.737 105.986,229.407 105.986 C 228.932 105.986,228.963 106.036,229.557 106.227 M240.360 110.511 C 240.360 110.568,240.799 110.936,241.335 111.329 C 241.939 111.771,242.148 111.843,241.885 111.519 C 241.486 111.027,240.360 110.283,240.360 110.511 M202.248 118.455 L 196.099 124.681 202.326 118.532 C 205.750 115.151,208.552 112.349,208.552 112.306 C 208.552 112.093,207.961 112.669,202.248 118.455 M245.161 115.079 C 245.549 115.491,245.916 115.829,245.978 115.829 C 246.227 115.829,244.990 114.347,244.734 114.338 C 244.581 114.333,244.774 114.666,245.161 115.079 M182.673 137.640 C 180.076 140.225,177.989 142.380,178.037 142.428 C 178.084 142.475,180.276 140.358,182.906 137.724 C 185.537 135.089,187.624 132.934,187.543 132.936 C 187.463 132.937,185.271 135.054,182.673 137.640 M250.157 136.459 C 250.076 136.748,249.917 137.322,249.803 137.734 C 249.666 138.226,249.696 138.381,249.889 138.185 C 250.051 138.020,250.265 137.446,250.365 136.909 C 250.557 135.884,250.407 135.561,250.157 136.459 M246.662 144.336 C 246.309 144.831,246.136 145.236,246.276 145.236 C 246.417 145.236,246.772 144.831,247.064 144.336 C 247.357 143.841,247.530 143.436,247.449 143.436 C 247.369 143.436,247.014 143.841,246.662 144.336 M168.039 152.063 L 161.590 158.590 168.117 152.141 C 174.181 146.148,174.779 145.536,174.566 145.536 C 174.523 145.536,171.586 148.473,168.039 152.063 M243.827 147.884 L 242.943 148.987 244.052 147.953 C 245.198 146.884,245.319 146.722,244.936 146.758 C 244.812 146.770,244.313 147.277,243.827 147.884 M157.212 162.494 C 155.464 164.225,154.116 165.641,154.216 165.641 C 154.317 165.641,155.812 164.224,157.539 162.491 C 159.266 160.758,160.614 159.341,160.535 159.343 C 160.455 159.345,158.960 160.763,157.212 162.494 M154.889 178.808 C 154.623 178.976,154.790 179.050,155.384 179.028 C 155.877 179.010,156.218 178.893,156.142 178.770 C 155.960 178.474,155.388 178.491,154.889 178.808 M135.478 184.021 L 132.483 187.097 135.559 184.102 C 137.251 182.454,138.635 181.070,138.635 181.026 C 138.635 180.809,138.260 181.164,135.478 184.021 M144.636 183.196 C 144.224 183.432,144.021 183.625,144.186 183.625 C 144.351 183.625,144.824 183.432,145.236 183.196 C 145.649 182.960,145.851 182.767,145.686 182.767 C 145.521 182.767,145.049 182.960,144.636 183.196 M141.035 184.696 C 140.623 184.932,140.420 185.125,140.585 185.125 C 140.750 185.125,141.223 184.932,141.635 184.696 C 142.048 184.460,142.251 184.267,142.086 184.267 C 141.920 184.267,141.448 184.460,141.035 184.696 M131.629 187.796 C 131.356 188.097,131.133 188.435,131.133 188.546 C 131.133 188.848,132.272 188.788,132.466 188.475 C 132.558 188.325,132.330 188.279,131.958 188.372 C 131.289 188.540,131.288 188.536,131.854 187.894 C 132.169 187.538,132.359 187.247,132.276 187.247 C 132.194 187.247,131.903 187.494,131.629 187.796 " stroke="none" fill="#c4c4c4" fill-rule="evenodd"></path><path id="path8" d="M250.713 124.831 C 250.815 124.996,251.144 125.131,251.444 125.131 C 251.744 125.131,252.491 125.341,253.105 125.597 C 253.718 125.853,254.365 126.014,254.543 125.955 C 254.721 125.896,253.990 125.551,252.919 125.189 C 250.727 124.449,250.448 124.404,250.713 124.831 M255.064 126.142 C 255.064 126.203,257.866 127.182,261.290 128.318 L 267.517 130.383 263.865 130.533 C 261.856 130.615,260.100 130.805,259.964 130.956 C 259.818 131.116,259.942 131.147,260.265 131.031 C 260.567 130.922,262.502 130.833,264.566 130.833 C 270.122 130.833,270.015 130.766,258.327 126.970 C 255.434 126.030,255.064 125.936,255.064 126.142 " stroke="none" fill="#fcd49c" fill-rule="evenodd"></path></g></svg>